<?xml version="1.0" standalone="no"?>
<!DOCTYPE svg PUBLIC "-//W3C//DTD SVG 20010904//EN"
 "http://www.w3.org/TR/2001/REC-SVG-20010904/DTD/svg10.dtd">
<svg version="1.0" xmlns="http://www.w3.org/2000/svg"
 width="500.000000pt" height="500.000000pt" viewBox="0 0 500.000000 500.000000"
 preserveAspectRatio="xMidYMid meet">
<metadata>
Created by potrace 1.14, written by Peter Selinger 2001-2017
</metadata>
<g transform="translate(0.000000,500.000000) scale(0.100000,-0.100000)"
fill="#000000" stroke="none">
<path d="M2300 4994 c-407 -37 -830 -179 -1146 -385 -229 -150 -494 -394 -642
-591 -259 -346 -423 -737 -488 -1163 -26 -167 -26 -542 -1 -705 60 -385 188
-721 392 -1030 106 -161 214 -289 361 -428 386 -370 848 -590 1409 -673 135
-21 510 -18 660 4 734 109 1358 509 1760 1130 396 611 499 1385 279 2097 -71
227 -169 431 -310 643 -393 588 -1018 980 -1724 1082 -110 16 -451 28 -550 19z
m891 -703 c78 -41 126 -88 160 -156 29 -60 31 -70 27 -147 -5 -99 -28 -157
-87 -221 -49 -53 -112 -82 -223 -103 -245 -45 -302 -101 -351 -344 -27 -135
-56 -199 -112 -247 -59 -51 -81 -60 -223 -92 -155 -35 -221 -66 -262 -123 -34
-47 -64 -138 -80 -243 -21 -137 -74 -216 -178 -267 -60 -30 -75 -33 -157 -33
-100 0 -143 16 -214 80 -63 57 -94 127 -99 220 -5 110 21 180 94 252 56 55 81
65 264 108 198 46 255 110 300 335 25 127 57 197 113 246 56 49 107 70 222 94
235 48 294 110 344 359 36 178 93 251 234 297 62 20 174 13 228 -15z m813
-814 c67 -31 140 -102 169 -165 17 -36 22 -66 21 -127 0 -104 -35 -186 -106
-250 -53 -48 -100 -67 -227 -90 -116 -22 -182 -49 -226 -93 -50 -49 -72 -100
-101 -240 -30 -142 -50 -188 -103 -241 -55 -55 -99 -75 -221 -101 -218 -46
-274 -85 -324 -225 -4 -11 -18 -73 -31 -139 -18 -93 -30 -129 -55 -165 -65
-94 -164 -145 -286 -145 -96 0 -169 37 -235 118 -84 104 -101 230 -47 347 50
107 121 153 287 188 235 50 293 106 340 326 31 144 47 187 88 234 62 74 113
98 271 131 215 44 275 108 322 340 12 58 29 123 39 145 68 154 266 224 425
152z m-1420 -603 c56 -20 130 -78 164 -130 101 -152 42 -382 -119 -464 -23
-12 -93 -33 -156 -46 -241 -50 -287 -96 -339 -341 -30 -140 -42 -169 -90 -222
-57 -64 -108 -89 -238 -116 -247 -51 -301 -105 -346 -345 -33 -174 -78 -242
-200 -299 -74 -35 -204 -37 -265 -4 -103 55 -179 161 -191 270 -8 66 24 175
69 235 42 56 135 103 246 124 241 45 299 105 351 362 23 113 47 166 102 220
54 54 105 77 225 103 119 26 183 49 228 83 49 38 91 133 120 268 27 132 47
177 102 230 87 84 220 112 337 72z"/>
</g>
</svg>
